<?xml version="1.0" encoding="iso-8859-1"?><!-- Generator: Adobe Illustrator 23.0.0, SVG Export Plug-In . SVG Version: 6.00 Build 0)  --><svg fill="#FFFFFF" xmlns="http://www.w3.org/2000/svg" xmlns:xlink="http://www.w3.org/1999/xlink" viewBox="0 0 50 50" width="44px" height="44px"><path style="fill:none;stroke:#000000;stroke-width:2;stroke-miterlimit:10;" d="M41,45H9c-2.209,0-4-1.791-4-4V9c0-2.209,1.791-4,4-4h32c2.209,0,4,1.791,4,4v32C45,43.209,43.209,45,41,45z"/><path style="fill:none;stroke:#000000;stroke-width:2;stroke-linejoin:round;stroke-miterlimit:10;" d="M45.001,35.37C41.481,37.656,37.164,39,32.5,39c-3.019,0-5.893-0.565-8.5-1.584c-3.567-1.441-5,2.404-10,1.404c3-1,3.466-5.35,2.655-6.141C13.144,29.208,11,24.581,11,19.5c0-5.759,2.753-10.934,7.128-14.502"/><polyline style="fill:none;stroke:#000000;stroke-width:2;stroke-linecap:round;stroke-linejoin:round;stroke-miterlimit:10;" points="18,17 23,17 18,25 23,25 "/><line style="fill:none;stroke:#000000;stroke-width:2;stroke-linecap:round;stroke-linejoin:round;stroke-miterlimit:10;" x1="33" y1="16" x2="33" y2="25"/><line style="fill:none;stroke:#000000;stroke-width:2;stroke-linecap:round;stroke-linejoin:round;stroke-miterlimit:10;" x1="30" y1="20" x2="30" y2="25"/><circle style="fill:none;stroke:#000000;stroke-width:2;stroke-linecap:round;stroke-linejoin:round;stroke-miterlimit:10;" cx="38.5" cy="22.5" r="2.5"/><circle style="fill:none;stroke:#000000;stroke-width:2;stroke-linecap:round;stroke-linejoin:round;stroke-miterlimit:10;" cx="27.5" cy="22.5" r="2.5"/></svg>